ply
format ascii 1.0
comment Created by Blender 2.78 (sub 0) - www.blender.org, source file: 'bananaMan.blend'
element vertex 626
property float x
property float y
property float z
property float nx
property float ny
property float nz
property float s
property float t
element face 212
property list uchar uint vertex_indices
end_header
0.725802 0.147734 0.857129 -0.848348 -0.327124 0.416288 0.000000 0.000000
0.636525 0.129053 0.660512 -0.848348 -0.327124 0.416288 0.000000 0.206205
0.639494 0.120748 0.660036 -0.848348 -0.327124 0.416288 0.083333 0.206205
0.725802 0.147734 0.857129 -0.848348 -0.327123 0.416288 0.000000 0.000000
0.639494 0.120748 0.660036 -0.848348 -0.327123 0.416288 0.083333 0.206205
0.728740 0.139422 0.856585 -0.848348 -0.327123 0.416288 0.083333 0.000000
0.728740 0.139422 0.856585 -0.678124 -0.635982 0.368339 0.083333 0.000000
0.639494 0.120748 0.660036 -0.678124 -0.635982 0.368339 0.083333 0.206205
0.644026 0.115162 0.658736 -0.678124 -0.635982 0.368339 0.166667 0.206205
0.644026 0.115162 0.658736 -0.678123 -0.635984 0.368339 0.166667 0.206205
0.733188 0.133818 0.855098 -0.678123 -0.635984 0.368339 0.166667 0.000000
0.728740 0.139422 0.856585 -0.678123 -0.635984 0.368339 0.083333 0.000000
0.733188 0.133818 0.855098 -0.203198 -0.961762 0.183642 0.166667 0.000000
0.644026 0.115162 0.658736 -0.203198 -0.961762 0.183642 0.166667 0.206205
0.648908 0.113792 0.656960 -0.203198 -0.961762 0.183642 0.250000 0.206205
0.648908 0.113792 0.656960 -0.203195 -0.961763 0.183641 0.250000 0.206205
0.737954 0.132423 0.853066 -0.203195 -0.961763 0.183641 0.250000 0.000000
0.733188 0.133818 0.855098 -0.203195 -0.961763 0.183641 0.166667 0.000000
0.737954 0.132423 0.853066 0.571746 -0.799614 -0.183641 0.250000 0.000000
0.648908 0.113792 0.656960 0.571746 -0.799614 -0.183641 0.250000 0.206205
0.652831 0.117004 0.655184 0.571746 -0.799614 -0.183641 0.333333 0.206205
0.652831 0.117004 0.655184 0.571743 -0.799616 -0.183639 0.333333 0.206205
0.741761 0.135612 0.851035 0.571743 -0.799616 -0.183639 0.333333 0.000000
0.737954 0.132423 0.853066 0.571743 -0.799616 -0.183639 0.250000 0.000000
0.741761 0.135612 0.851035 0.876221 -0.310745 -0.368341 0.333333 0.000000
0.652831 0.117004 0.655184 0.876221 -0.310745 -0.368341 0.333333 0.206205
0.654744 0.123939 0.653884 0.876221 -0.310745 -0.368341 0.416667 0.206205
0.654744 0.123939 0.653884 0.876219 -0.310750 -0.368340 0.416667 0.206205
0.743589 0.142529 0.849548 0.876219 -0.310750 -0.368340 0.416667 0.000000
0.741761 0.135612 0.851035 0.876219 -0.310750 -0.368340 0.333333 0.000000
0.743589 0.142529 0.849548 0.908333 0.040438 -0.416288 0.416667 0.000000
0.654744 0.123939 0.653884 0.908333 0.040438 -0.416288 0.416667 0.206205
0.654134 0.132738 0.653408 0.908333 0.040438 -0.416288 0.500000 0.206205
0.654134 0.132738 0.653408 0.908333 0.040443 -0.416288 0.500000 0.206205
0.742948 0.151321 0.849003 0.908333 0.040443 -0.416288 0.500000 0.000000
0.743589 0.142529 0.849548 0.908333 0.040443 -0.416288 0.416667 0.000000
0.742948 0.151321 0.849003 0.848346 0.327129 -0.416288 0.500000 0.000000
0.654134 0.132738 0.653408 0.848346 0.327129 -0.416288 0.500000 0.206205
0.651165 0.141043 0.653884 0.848346 0.327129 -0.416288 0.583333 0.206205
0.651165 0.141043 0.653884 0.848348 0.327125 -0.416288 0.583333 0.206205
0.740010 0.159633 0.849548 0.848348 0.327125 -0.416288 0.583333 0.000000
0.742948 0.151321 0.849003 0.848348 0.327125 -0.416288 0.500000 0.000000
0.740010 0.159633 0.849548 0.678130 0.635975 -0.368341 0.583333 0.000000
0.651165 0.141043 0.653884 0.678130 0.635975 -0.368341 0.583333 0.206205
0.646632 0.146629 0.655184 0.678130 0.635975 -0.368341 0.666667 0.206205
0.646632 0.146629 0.655184 0.678123 0.635984 -0.368339 0.666667 0.206205
0.735562 0.165237 0.851035 0.678123 0.635984 -0.368339 0.666667 0.000000
0.740010 0.159633 0.849548 0.678123 0.635984 -0.368339 0.583333 0.000000
0.735562 0.165237 0.851035 0.203193 0.961763 -0.183640 0.666667 0.000000
0.646632 0.146629 0.655184 0.203193 0.961763 -0.183640 0.666667 0.206205
0.641750 0.147999 0.656960 0.203193 0.961763 -0.183640 0.750000 0.206205
0.641750 0.147999 0.656960 0.203195 0.961763 -0.183641 0.750000 0.206205
0.730796 0.166631 0.853066 0.203195 0.961763 -0.183641 0.750000 0.000000
0.735562 0.165237 0.851035 0.203195 0.961763 -0.183641 0.666667 0.000000
0.730796 0.166631 0.853066 -0.571747 0.799613 0.183641 0.750000 0.000000
0.641750 0.147999 0.656960 -0.571747 0.799613 0.183641 0.750000 0.206205
0.637828 0.144787 0.658736 -0.571747 0.799613 0.183641 0.833333 0.206205
0.637828 0.144787 0.658736 -0.571748 0.799613 0.183642 0.833333 0.206205
0.726989 0.163443 0.855098 -0.571748 0.799613 0.183642 0.833333 0.000000
0.730796 0.166631 0.853066 -0.571748 0.799613 0.183642 0.750000 0.000000
0.726989 0.163443 0.855098 -0.876220 0.310748 0.368340 0.833333 0.000000
0.637828 0.144787 0.658736 -0.876220 0.310748 0.368340 0.833333 0.206205
0.635915 0.137852 0.660036 -0.876220 0.310748 0.368340 0.916667 0.206205
0.635915 0.137852 0.660036 -0.876220 0.310750 0.368339 0.916667 0.206205
0.725161 0.156526 0.856585 -0.876220 0.310750 0.368339 0.916667 0.000000
0.726989 0.163443 0.855098 -0.876220 0.310750 0.368339 0.833333 0.000000
0.725161 0.156526 0.856585 -0.908333 -0.040445 0.416288 0.916667 0.000000
0.635915 0.137852 0.660036 -0.908333 -0.040445 0.416288 0.916667 0.206205
0.636525 0.129053 0.660512 -0.908333 -0.040445 0.416288 1.000000 0.206205
0.636525 0.129053 0.660512 -0.908333 -0.040446 0.416288 1.000000 0.206205
0.725802 0.147734 0.857129 -0.908333 -0.040446 0.416288 1.000000 0.000000
0.725161 0.156526 0.856585 -0.908333 -0.040446 0.416288 0.916667 0.000000
0.636525 0.129053 0.660512 -0.889767 -0.335800 0.309116 0.000000 0.206205
0.584862 0.118243 0.500061 -0.889767 -0.335800 0.309116 0.000000 0.366036
0.587886 0.109950 0.499756 -0.889767 -0.335800 0.309116 0.083333 0.366036
0.587886 0.109950 0.499756 -0.889771 -0.335791 0.309116 0.083333 0.366036
0.639494 0.120748 0.660036 -0.889771 -0.335791 0.309116 0.083333 0.206205
0.636525 0.129053 0.660512 -0.889771 -0.335791 0.309116 0.000000 0.206205
0.639494 0.120748 0.660036 -0.714783 -0.643643 0.273513 0.083333 0.206205
0.587886 0.109950 0.499756 -0.714783 -0.643643 0.273513 0.083333 0.366036
0.592569 0.104395 0.498924 -0.714783 -0.643643 0.273513 0.166667 0.366036
0.592569 0.104395 0.498924 -0.714775 -0.643652 0.273511 0.166667 0.366036
0.644026 0.115162 0.658736 -0.714775 -0.643652 0.273511 0.166667 0.206205
0.639494 0.120748 0.660036 -0.714775 -0.643652 0.273511 0.083333 0.206205
0.644026 0.115162 0.658736 -0.221464 -0.965587 0.136362 0.166667 0.206205
0.592569 0.104395 0.498924 -0.221464 -0.965587 0.136362 0.166667 0.366036
0.597657 0.103068 0.497787 -0.221464 -0.965587 0.136362 0.250000 0.366036
0.597657 0.103068 0.497787 -0.221471 -0.965585 0.136364 0.250000 0.366036
0.648908 0.113792 0.656960 -0.221471 -0.965585 0.136364 0.250000 0.206205
0.644026 0.115162 0.658736 -0.221471 -0.965585 0.136364 0.166667 0.206205
0.648908 0.113792 0.656960 0.590021 -0.795789 -0.136364 0.250000 0.206205
0.597657 0.103068 0.497787 0.590021 -0.795789 -0.136364 0.250000 0.366036
0.601786 0.106324 0.496651 0.590021 -0.795789 -0.136364 0.333333 0.366036
0.601786 0.106324 0.496651 0.590018 -0.795791 -0.136363 0.333333 0.366036
0.652831 0.117004 0.655184 0.590018 -0.795791 -0.136363 0.333333 0.206205
0.648908 0.113792 0.656960 0.590018 -0.795791 -0.136363 0.250000 0.206205
0.652831 0.117004 0.655184 0.912870 -0.303086 -0.273511 0.333333 0.206205
0.601786 0.106324 0.496651 0.912870 -0.303086 -0.273511 0.333333 0.366036
0.603849 0.113290 0.495819 0.912870 -0.303086 -0.273511 0.416667 0.366036
0.603849 0.113290 0.495819 0.912873 -0.303076 -0.273512 0.416667 0.366036
0.654744 0.123939 0.653884 0.912873 -0.303076 -0.273512 0.416667 0.206205
0.652831 0.117004 0.655184 0.912873 -0.303076 -0.273512 0.333333 0.206205
0.654744 0.123939 0.653884 0.949755 0.049117 -0.309116 0.416667 0.206205
0.603849 0.113290 0.495819 0.949755 0.049117 -0.309116 0.416667 0.366036
0.603295 0.122100 0.495515 0.949755 0.049117 -0.309116 0.500000 0.366036
0.603295 0.122100 0.495515 0.949756 0.049106 -0.309116 0.500000 0.366036
0.654134 0.132738 0.653408 0.949756 0.049106 -0.309116 0.500000 0.206205
0.654744 0.123939 0.653884 0.949756 0.049106 -0.309116 0.416667 0.206205
0.654134 0.132738 0.653408 0.889771 0.335791 -0.309116 0.500000 0.206205
0.603295 0.122100 0.495515 0.889771 0.335791 -0.309116 0.500000 0.366036
0.600270 0.130394 0.495819 0.889771 0.335791 -0.309116 0.583333 0.366036
0.600270 0.130394 0.495819 0.889769 0.335797 -0.309115 0.583333 0.366036
0.651165 0.141043 0.653884 0.889769 0.335797 -0.309115 0.583333 0.206205
0.654134 0.132738 0.653408 0.889769 0.335797 -0.309115 0.500000 0.206205
0.651165 0.141043 0.653884 0.714780 0.643647 -0.273512 0.583333 0.206205
0.600270 0.130394 0.495819 0.714780 0.643647 -0.273512 0.583333 0.366036
0.595587 0.135948 0.496651 0.714780 0.643647 -0.273512 0.666667 0.366036
0.595587 0.135948 0.496651 0.714782 0.643644 -0.273513 0.666667 0.366036
0.646632 0.146629 0.655184 0.714782 0.643644 -0.273513 0.666667 0.206205
0.651165 0.141043 0.653884 0.714782 0.643644 -0.273513 0.583333 0.206205
0.646632 0.146629 0.655184 0.221469 0.965586 -0.136363 0.666667 0.206205
0.595587 0.135948 0.496651 0.221469 0.965586 -0.136363 0.666667 0.366036
0.590499 0.137276 0.497787 0.221469 0.965586 -0.136363 0.750000 0.366036
0.590499 0.137276 0.497787 0.221466 0.965587 -0.136362 0.750000 0.366036
0.641750 0.147999 0.656960 0.221466 0.965587 -0.136362 0.750000 0.206205
0.646632 0.146629 0.655184 0.221466 0.965587 -0.136362 0.666667 0.206205
0.641750 0.147999 0.656960 -0.590021 0.795789 0.136364 0.750000 0.206205
0.590499 0.137276 0.497787 -0.590021 0.795789 0.136364 0.750000 0.366036
0.586371 0.134020 0.498924 -0.590021 0.795789 0.136364 0.833333 0.366036
0.586371 0.134020 0.498924 -0.590020 0.795789 0.136364 0.833333 0.366036
0.637828 0.144787 0.658736 -0.590020 0.795789 0.136364 0.833333 0.206205
0.641750 0.147999 0.656960 -0.590020 0.795789 0.136364 0.750000 0.206205
0.637828 0.144787 0.658736 -0.912873 0.303074 0.273513 0.833333 0.206205
0.586371 0.134020 0.498924 -0.912873 0.303074 0.273513 0.833333 0.366036
0.584307 0.127054 0.499756 -0.912873 0.303074 0.273513 0.916667 0.366036
0.584307 0.127054 0.499756 -0.912871 0.303080 0.273511 0.916667 0.366036
0.635915 0.137852 0.660036 -0.912871 0.303080 0.273511 0.916667 0.206205
0.637828 0.144787 0.658736 -0.912871 0.303080 0.273511 0.833333 0.206205
0.635915 0.137852 0.660036 -0.949756 -0.049102 0.309115 0.916667 0.206205
0.584307 0.127054 0.499756 -0.949756 -0.049102 0.309115 0.916667 0.366036
0.584862 0.118243 0.500061 -0.949756 -0.049102 0.309115 1.000000 0.366036
0.584862 0.118243 0.500061 -0.949755 -0.049112 0.309116 1.000000 0.366036
0.636525 0.129053 0.660512 -0.949755 -0.049112 0.309116 1.000000 0.206205
0.635915 0.137852 0.660036 -0.949755 -0.049112 0.309116 0.916667 0.206205
0.584862 0.118243 0.500061 -0.926507 -0.343492 0.153617 0.000000 0.366036
0.564833 0.114052 0.369891 -0.926507 -0.343492 0.153617 0.000000 0.490009
0.567894 0.105766 0.369824 -0.926507 -0.343492 0.153617 0.083333 0.490009
0.567894 0.105766 0.369824 -0.926509 -0.343487 0.153617 0.083333 0.490009
0.587886 0.109950 0.499756 -0.926509 -0.343487 0.153617 0.083333 0.366036
0.584862 0.118243 0.500061 -0.926509 -0.343487 0.153617 0.000000 0.366036
0.587886 0.109950 0.499756 -0.747294 -0.650443 0.135924 0.083333 0.366036
0.567894 0.105766 0.369824 -0.747294 -0.650443 0.135924 0.083333 0.490009
0.572677 0.100233 0.369642 -0.747294 -0.650443 0.135924 0.166667 0.490009
0.572677 0.100233 0.369642 -0.747292 -0.650445 0.135924 0.166667 0.490009
0.592569 0.104395 0.498924 -0.747292 -0.650445 0.135924 0.166667 0.366036
0.587886 0.109950 0.499756 -0.747292 -0.650445 0.135924 0.083333 0.366036
0.592569 0.104395 0.498924 -0.237679 -0.968977 0.067767 0.166667 0.366036
0.572677 0.100233 0.369642 -0.237679 -0.968977 0.067767 0.166667 0.490009
0.577901 0.098934 0.369394 -0.237679 -0.968977 0.067767 0.250000 0.490009
0.577901 0.098934 0.369394 -0.237672 -0.968979 0.067766 0.250000 0.490009
0.597657 0.103068 0.497787 -0.237672 -0.968979 0.067766 0.250000 0.366036
0.592569 0.104395 0.498924 -0.237672 -0.968979 0.067766 0.166667 0.366036
0.597657 0.103068 0.497787 0.606226 -0.792400 -0.067767 0.250000 0.366036
0.577901 0.098934 0.369394 0.606226 -0.792400 -0.067767 0.250000 0.490009
0.582167 0.102219 0.369146 0.606226 -0.792400 -0.067767 0.333333 0.490009
0.582167 0.102219 0.369146 0.606228 -0.792398 -0.067767 0.333333 0.490009
0.601786 0.106324 0.496651 0.606228 -0.792398 -0.067767 0.333333 0.366036
0.597657 0.103068 0.497787 0.606228 -0.792398 -0.067767 0.250000 0.366036
0.601786 0.106324 0.496651 0.945381 -0.296277 -0.135924 0.333333 0.366036
0.582167 0.102219 0.369146 0.945381 -0.296277 -0.135924 0.333333 0.490009
0.584330 0.109206 0.368964 0.945381 -0.296277 -0.135924 0.416667 0.490009
0.584330 0.109206 0.368964 0.945379 -0.296282 -0.135924 0.416667 0.490009
0.603849 0.113290 0.495819 0.945379 -0.296282 -0.135924 0.416667 0.366036
0.601786 0.106324 0.496651 0.945379 -0.296282 -0.135924 0.333333 0.366036
0.603849 0.113290 0.495819 0.986496 0.056801 -0.153618 0.416667 0.366036
0.584330 0.109206 0.368964 0.986496 0.056801 -0.153618 0.416667 0.490009
0.583812 0.118024 0.368897 0.986496 0.056801 -0.153618 0.500000 0.490009
0.583812 0.118024 0.368897 0.986497 0.056801 -0.153618 0.500000 0.490009
0.603295 0.122100 0.495515 0.986497 0.056801 -0.153618 0.500000 0.366036
0.603849 0.113290 0.495819 0.986497 0.056801 -0.153618 0.416667 0.366036
0.603295 0.122100 0.495515 0.926510 0.343484 -0.153617 0.500000 0.366036
0.583812 0.118024 0.368897 0.926510 0.343484 -0.153617 0.500000 0.490009
0.580752 0.126310 0.368964 0.926510 0.343484 -0.153617 0.583333 0.490009
0.580752 0.126310 0.368964 0.926511 0.343479 -0.153618 0.583333 0.490009
0.600270 0.130394 0.495819 0.926511 0.343479 -0.153618 0.583333 0.366036
0.603295 0.122100 0.495515 0.926511 0.343479 -0.153618 0.500000 0.366036
0.600270 0.130394 0.495819 0.747291 0.650447 -0.135925 0.583333 0.366036
0.580752 0.126310 0.368964 0.747291 0.650447 -0.135925 0.583333 0.490009
0.575968 0.131843 0.369146 0.747291 0.650447 -0.135925 0.666667 0.490009
0.575968 0.131843 0.369146 0.747289 0.650449 -0.135924 0.666667 0.490009
0.595587 0.135948 0.496651 0.747289 0.650449 -0.135924 0.666667 0.366036
0.600270 0.130394 0.495819 0.747289 0.650449 -0.135924 0.583333 0.366036
0.595587 0.135948 0.496651 0.237672 0.968979 -0.067766 0.666667 0.366036
0.575968 0.131843 0.369146 0.237672 0.968979 -0.067766 0.666667 0.490009
0.570744 0.133142 0.369394 0.237672 0.968979 -0.067766 0.750000 0.490009
0.570744 0.133142 0.369394 0.237676 0.968978 -0.067767 0.750000 0.490009
0.590499 0.137276 0.497787 0.237676 0.968978 -0.067767 0.750000 0.366036
0.595587 0.135948 0.496651 0.237676 0.968978 -0.067767 0.666667 0.366036
0.590499 0.137276 0.497787 -0.606230 0.792397 0.067767 0.750000 0.366036
0.570744 0.133142 0.369394 -0.606230 0.792397 0.067767 0.750000 0.490009
0.566478 0.129858 0.369642 -0.606230 0.792397 0.067767 0.833333 0.490009
0.586371 0.134020 0.498924 -0.606230 0.792397 0.067767 0.833333 0.366036
0.586371 0.134020 0.498924 -0.945383 0.296269 0.135924 0.833333 0.366036
0.566478 0.129858 0.369642 -0.945383 0.296269 0.135924 0.833333 0.490009
0.564315 0.122870 0.369824 -0.945383 0.296269 0.135924 0.916667 0.490009
0.564315 0.122870 0.369824 -0.945382 0.296272 0.135924 0.916667 0.490009
0.584307 0.127054 0.499756 -0.945382 0.296272 0.135924 0.916667 0.366036
0.586371 0.134020 0.498924 -0.945382 0.296272 0.135924 0.833333 0.366036
0.584307 0.127054 0.499756 -0.986498 -0.056785 0.153617 0.916667 0.366036
0.564315 0.122870 0.369824 -0.986498 -0.056785 0.153617 0.916667 0.490009
0.564833 0.114052 0.369891 -0.986498 -0.056785 0.153617 1.000000 0.490009
0.564833 0.114052 0.369891 -0.986497 -0.056790 0.153617 1.000000 0.490009
0.584862 0.118243 0.500061 -0.986497 -0.056790 0.153617 1.000000 0.366036
0.584307 0.127054 0.499756 -0.986497 -0.056790 0.153617 0.916667 0.366036
0.564833 0.114052 0.369891 -0.936870 -0.345651 -0.052915 0.000000 0.490009
0.570385 0.115214 0.263993 -0.936870 -0.345651 -0.052915 0.000000 0.589133
0.573431 0.106925 0.264211 -0.936870 -0.345651 -0.052915 0.083333 0.589133
0.573431 0.106925 0.264211 -0.936867 -0.345658 -0.052914 0.083333 0.589133
0.567894 0.105766 0.369824 -0.936867 -0.345658 -0.052914 0.083333 0.490009
0.564833 0.114052 0.369891 -0.936867 -0.345658 -0.052914 0.000000 0.490009
0.567894 0.105766 0.369824 -0.756456 -0.652367 -0.046820 0.083333 0.490009
0.573431 0.106925 0.264211 -0.756456 -0.652367 -0.046820 0.083333 0.589133
0.578174 0.101383 0.264808 -0.756456 -0.652367 -0.046820 0.166667 0.589133
0.578174 0.101383 0.264808 -0.756459 -0.652363 -0.046820 0.166667 0.589133
0.572677 0.100233 0.369642 -0.756459 -0.652363 -0.046820 0.166667 0.490009
0.567894 0.105766 0.369824 -0.756459 -0.652363 -0.046820 0.083333 0.490009
0.572677 0.100233 0.369642 -0.242246 -0.969934 -0.023343 0.166667 0.490009
0.578174 0.101383 0.264808 -0.242246 -0.969934 -0.023343 0.166667 0.589133
0.583342 0.100073 0.265623 -0.242246 -0.969934 -0.023343 0.250000 0.589133
0.583342 0.100073 0.265623 -0.242249 -0.969933 -0.023343 0.250000 0.589133
0.577901 0.098934 0.369394 -0.242249 -0.969933 -0.023343 0.250000 0.490009
0.572677 0.100233 0.369642 -0.242249 -0.969933 -0.023343 0.166667 0.490009
0.577901 0.098934 0.369394 0.610796 -0.791444 0.023342 0.250000 0.490009
0.583342 0.100073 0.265623 0.610796 -0.791444 0.023342 0.250000 0.589133
0.587552 0.103345 0.266439 0.610796 -0.791444 0.023342 0.333333 0.589133
0.587552 0.103345 0.266439 0.610798 -0.791443 0.023343 0.333333 0.589133
0.582167 0.102219 0.369146 0.610798 -0.791443 0.023343 0.333333 0.490009
0.577901 0.098934 0.369394 0.610798 -0.791443 0.023343 0.250000 0.490009
0.582167 0.102219 0.369146 0.954547 -0.294360 0.046820 0.333333 0.490009
0.587552 0.103345 0.266439 0.954547 -0.294360 0.046820 0.333333 0.589133
0.589675 0.110324 0.267036 0.954547 -0.294360 0.046820 0.416667 0.589133
0.584330 0.109206 0.368964 0.954547 -0.294360 0.046820 0.416667 0.490009
0.584330 0.109206 0.368964 0.996857 0.058956 0.052914 0.416667 0.490009
0.589675 0.110324 0.267036 0.996857 0.058956 0.052914 0.416667 0.589133
0.589142 0.119139 0.267254 0.996857 0.058956 0.052914 0.500000 0.589133
0.589142 0.119139 0.267254 0.996856 0.058967 0.052915 0.500000 0.589133
0.583812 0.118024 0.368897 0.996856 0.058967 0.052915 0.500000 0.490009
0.584330 0.109206 0.368964 0.996856 0.058967 0.052915 0.416667 0.490009
0.583812 0.118024 0.368897 0.936868 0.345657 0.052915 0.500000 0.490009
0.589142 0.119139 0.267254 0.936868 0.345657 0.052915 0.500000 0.589133
0.586096 0.127428 0.267036 0.936868 0.345657 0.052915 0.583333 0.589133
0.586096 0.127428 0.267036 0.936869 0.345653 0.052915 0.583333 0.589133
0.580752 0.126310 0.368964 0.936869 0.345653 0.052915 0.583333 0.490009
0.583812 0.118024 0.368897 0.936869 0.345653 0.052915 0.500000 0.490009
0.580752 0.126310 0.368964 0.756451 0.652373 0.046820 0.583333 0.490009
0.586096 0.127428 0.267036 0.756451 0.652373 0.046820 0.583333 0.589133
0.581353 0.132970 0.266439 0.756451 0.652373 0.046820 0.666667 0.589133
0.581353 0.132970 0.266439 0.756456 0.652366 0.046820 0.666667 0.589133
0.575968 0.131843 0.369146 0.756456 0.652366 0.046820 0.666667 0.490009
0.580752 0.126310 0.368964 0.756456 0.652366 0.046820 0.583333 0.490009
0.575968 0.131843 0.369146 0.242249 0.969933 0.023343 0.666667 0.490009
0.581353 0.132970 0.266439 0.242249 0.969933 0.023343 0.666667 0.589133
0.576185 0.134281 0.265623 0.242249 0.969933 0.023343 0.750000 0.589133
0.576185 0.134281 0.265623 0.242244 0.969934 0.023343 0.750000 0.589133
0.570744 0.133142 0.369394 0.242244 0.969934 0.023343 0.750000 0.490009
0.575968 0.131843 0.369146 0.242244 0.969934 0.023343 0.666667 0.490009
0.570744 0.133142 0.369394 -0.610798 0.791443 -0.023343 0.750000 0.490009
0.576185 0.134281 0.265623 -0.610798 0.791443 -0.023343 0.750000 0.589133
0.571975 0.131008 0.264808 -0.610798 0.791443 -0.023343 0.833333 0.589133
0.571975 0.131008 0.264808 -0.610800 0.791441 -0.023343 0.833333 0.589133
0.566478 0.129858 0.369642 -0.610800 0.791441 -0.023343 0.833333 0.490009
0.570744 0.133142 0.369394 -0.610800 0.791441 -0.023343 0.750000 0.490009
0.566478 0.129858 0.369642 -0.954549 0.294352 -0.046820 0.833333 0.490009
0.571975 0.131008 0.264808 -0.954549 0.294352 -0.046820 0.833333 0.589133
0.569852 0.124029 0.264211 -0.954549 0.294352 -0.046820 0.916667 0.589133
0.569852 0.124029 0.264211 -0.954549 0.294353 -0.046820 0.916667 0.589133
0.564315 0.122870 0.369824 -0.954549 0.294353 -0.046820 0.916667 0.490009
0.566478 0.129858 0.369642 -0.954549 0.294353 -0.046820 0.833333 0.490009
0.564315 0.122870 0.369824 -0.996857 -0.058962 -0.052914 0.916667 0.490009
0.569852 0.124029 0.264211 -0.996857 -0.058962 -0.052914 0.916667 0.589133
0.570385 0.115214 0.263993 -0.996857 -0.058962 -0.052914 1.000000 0.589133
0.570385 0.115214 0.263993 -0.996857 -0.058955 -0.052915 1.000000 0.589133
0.564833 0.114052 0.369891 -0.996857 -0.058955 -0.052915 1.000000 0.490009
0.564315 0.122870 0.369824 -0.996857 -0.058955 -0.052915 0.916667 0.490009
0.570385 0.115214 0.263993 -0.899568 -0.337850 -0.276829 0.000000 0.589133
0.595286 0.120425 0.176718 -0.899568 -0.337850 -0.276829 0.000000 0.673886
0.598257 0.112120 0.177201 -0.899568 -0.337850 -0.276829 0.083333 0.673886
0.598257 0.112120 0.177201 -0.899569 -0.337847 -0.276830 0.083333 0.673886
0.573431 0.106925 0.264211 -0.899569 -0.337847 -0.276830 0.083333 0.589133
0.570385 0.115214 0.263993 -0.899569 -0.337847 -0.276830 0.000000 0.589133
0.573431 0.106925 0.264211 -0.723451 -0.645461 -0.244945 0.083333 0.589133
0.598257 0.112120 0.177201 -0.723451 -0.645461 -0.244945 0.083333 0.673886
0.602793 0.106535 0.178519 -0.723451 -0.645461 -0.244945 0.166667 0.673886
0.602793 0.106535 0.178519 -0.723453 -0.645459 -0.244946 0.166667 0.673886
0.578174 0.101383 0.264808 -0.723453 -0.645459 -0.244946 0.166667 0.589133
0.573431 0.106925 0.264211 -0.723453 -0.645459 -0.244946 0.083333 0.589133
0.578174 0.101383 0.264808 -0.225793 -0.966490 -0.122121 0.166667 0.589133
0.602793 0.106535 0.178519 -0.225793 -0.966490 -0.122121 0.166667 0.673886
0.607681 0.105165 0.180320 -0.225793 -0.966490 -0.122121 0.250000 0.673886
0.607681 0.105165 0.180320 -0.225790 -0.966491 -0.122120 0.250000 0.673886
0.583342 0.100073 0.265623 -0.225790 -0.966491 -0.122120 0.250000 0.589133
0.578174 0.101383 0.264808 -0.225790 -0.966491 -0.122120 0.166667 0.589133
0.583342 0.100073 0.265623 0.594343 -0.794885 0.122121 0.250000 0.589133
0.607681 0.105165 0.180320 0.594343 -0.794885 0.122121 0.250000 0.673886
0.611609 0.108379 0.182121 0.594343 -0.794885 0.122121 0.333333 0.673886
0.611609 0.108379 0.182121 0.594342 -0.794886 0.122120 0.333333 0.673886
0.587552 0.103345 0.266439 0.594342 -0.794886 0.122120 0.333333 0.589133
0.583342 0.100073 0.265623 0.594342 -0.794886 0.122120 0.250000 0.589133
0.587552 0.103345 0.266439 0.921544 -0.301263 0.244945 0.333333 0.589133
0.611609 0.108379 0.182121 0.921544 -0.301263 0.244945 0.333333 0.673886
0.613526 0.115315 0.183439 0.921544 -0.301263 0.244945 0.416667 0.673886
0.613526 0.115315 0.183439 0.921543 -0.301266 0.244944 0.416667 0.673886
0.589675 0.110324 0.267036 0.921543 -0.301266 0.244944 0.416667 0.589133
0.587552 0.103345 0.266439 0.921543 -0.301266 0.244944 0.333333 0.589133
0.589675 0.110324 0.267036 0.959556 0.051161 0.276830 0.416667 0.589133
0.613526 0.115315 0.183439 0.959556 0.051161 0.276830 0.416667 0.673886
0.612918 0.124114 0.183921 0.959556 0.051161 0.276830 0.500000 0.673886
0.612918 0.124114 0.183921 0.959557 0.051150 0.276828 0.500000 0.673886
0.589142 0.119139 0.267254 0.959557 0.051150 0.276828 0.500000 0.589133
0.589675 0.110324 0.267036 0.959557 0.051150 0.276828 0.416667 0.589133
0.589142 0.119139 0.267254 0.899571 0.337843 0.276829 0.500000 0.589133
0.612918 0.124114 0.183921 0.899571 0.337843 0.276829 0.500000 0.673886
0.609947 0.132419 0.183439 0.899571 0.337843 0.276829 0.583333 0.673886
0.609947 0.132419 0.183439 0.899567 0.337853 0.276829 0.583333 0.673886
0.586096 0.127428 0.267036 0.899567 0.337853 0.276829 0.583333 0.589133
0.589142 0.119139 0.267254 0.899567 0.337853 0.276829 0.500000 0.589133
0.586096 0.127428 0.267036 0.723451 0.645461 0.244945 0.583333 0.589133
0.609947 0.132419 0.183439 0.723451 0.645461 0.244945 0.583333 0.673886
0.605411 0.138004 0.182121 0.723451 0.645461 0.244945 0.666667 0.673886
0.605411 0.138004 0.182121 0.723446 0.645467 0.244945 0.666667 0.673886
0.581353 0.132970 0.266439 0.723446 0.645467 0.244945 0.666667 0.589133
0.586096 0.127428 0.267036 0.723446 0.645467 0.244945 0.583333 0.589133
0.581353 0.132970 0.266439 0.225791 0.966491 0.122121 0.666667 0.589133
0.605411 0.138004 0.182121 0.225791 0.966491 0.122121 0.666667 0.673886
0.600523 0.139373 0.180320 0.225791 0.966491 0.122121 0.750000 0.673886
0.600523 0.139373 0.180320 0.225795 0.966490 0.122122 0.750000 0.673886
0.576185 0.134281 0.265623 0.225795 0.966490 0.122122 0.750000 0.589133
0.581353 0.132970 0.266439 0.225795 0.966490 0.122122 0.666667 0.589133
0.576185 0.134281 0.265623 -0.594341 0.794887 -0.122120 0.750000 0.589133
0.600523 0.139373 0.180320 -0.594341 0.794887 -0.122120 0.750000 0.673886
0.596595 0.136159 0.178519 -0.594341 0.794887 -0.122120 0.833333 0.673886
0.596595 0.136159 0.178519 -0.594342 0.794886 -0.122120 0.833333 0.673886
0.571975 0.131008 0.264808 -0.594342 0.794886 -0.122120 0.833333 0.589133
0.576185 0.134281 0.265623 -0.594342 0.794886 -0.122120 0.750000 0.589133
0.571975 0.131008 0.264808 -0.921544 0.301263 -0.244945 0.833333 0.589133
0.596595 0.136159 0.178519 -0.921544 0.301263 -0.244945 0.833333 0.673886
0.594678 0.129224 0.177201 -0.921544 0.301263 -0.244945 0.916667 0.673886
0.594678 0.129224 0.177201 -0.921546 0.301256 -0.244946 0.916667 0.673886
0.569852 0.124029 0.264211 -0.921546 0.301256 -0.244946 0.916667 0.589133
0.571975 0.131008 0.264808 -0.921546 0.301256 -0.244946 0.833333 0.589133
0.569852 0.124029 0.264211 -0.959557 -0.051154 -0.276829 0.916667 0.589133
0.594678 0.129224 0.177201 -0.959557 -0.051154 -0.276829 0.916667 0.673886
0.595286 0.120425 0.176718 -0.959557 -0.051154 -0.276829 1.000000 0.673886
0.595286 0.120425 0.176718 -0.959556 -0.051156 -0.276829 1.000000 0.673886
0.570385 0.115214 0.263993 -0.959556 -0.051156 -0.276829 1.000000 0.589133
0.569852 0.124029 0.264211 -0.959556 -0.051156 -0.276829 0.916667 0.589133
0.595286 0.120425 0.176718 -0.830112 -0.323305 -0.454300 0.000000 0.673886
0.632876 0.128290 0.102435 -0.830112 -0.323305 -0.454300 0.000000 0.752264
0.635759 0.119967 0.103091 -0.830112 -0.323305 -0.454300 0.083333 0.752264
0.635759 0.119967 0.103091 -0.830109 -0.323314 -0.454298 0.083333 0.752264
0.598257 0.112120 0.177201 -0.830109 -0.323314 -0.454298 0.083333 0.673886
0.595286 0.120425 0.176718 -0.830109 -0.323314 -0.454298 0.000000 0.673886
0.598257 0.112120 0.177201 -0.661988 -0.632606 -0.401972 0.083333 0.673886
0.635759 0.119967 0.103091 -0.661988 -0.632606 -0.401972 0.083333 0.752264
0.640057 0.114331 0.104882 -0.661988 -0.632606 -0.401972 0.166667 0.752264
0.640057 0.114331 0.104882 -0.661992 -0.632601 -0.401974 0.166667 0.752264
0.602793 0.106535 0.178519 -0.661992 -0.632601 -0.401974 0.166667 0.673886
0.598257 0.112120 0.177201 -0.661992 -0.632601 -0.401974 0.083333 0.673886
0.602793 0.106535 0.178519 -0.195149 -0.960080 -0.200409 0.166667 0.673886
0.640057 0.114331 0.104882 -0.195149 -0.960080 -0.200409 0.166667 0.752264
0.644617 0.112894 0.107328 -0.195149 -0.960080 -0.200409 0.250000 0.752264
0.644617 0.112894 0.107328 -0.195151 -0.960079 -0.200410 0.250000 0.752264
0.607681 0.105165 0.180320 -0.195151 -0.960079 -0.200410 0.250000 0.673886
0.602793 0.106535 0.178519 -0.195151 -0.960079 -0.200410 0.166667 0.673886
0.607681 0.105165 0.180320 0.563701 -0.801297 0.200409 0.250000 0.673886
0.644617 0.112894 0.107328 0.563701 -0.801297 0.200409 0.250000 0.752264
0.648219 0.116039 0.109774 0.563701 -0.801297 0.200409 0.333333 0.752264
0.648219 0.116039 0.109774 0.563702 -0.801297 0.200409 0.333333 0.752264
0.611609 0.108379 0.182121 0.563702 -0.801297 0.200409 0.333333 0.673886
0.607681 0.105165 0.180320 0.563702 -0.801297 0.200409 0.250000 0.673886
0.611609 0.108379 0.182121 0.860084 -0.314123 0.401973 0.333333 0.673886
0.648219 0.116039 0.109774 0.860084 -0.314123 0.401973 0.333333 0.752264
0.649897 0.122925 0.111565 0.860084 -0.314123 0.401973 0.416667 0.752264
0.649897 0.122925 0.111565 0.860084 -0.314124 0.401972 0.416667 0.752264
0.613526 0.115315 0.183439 0.860084 -0.314124 0.401972 0.416667 0.673886
0.611609 0.108379 0.182121 0.860084 -0.314124 0.401972 0.333333 0.673886
0.613526 0.115315 0.183439 0.890096 0.036625 0.454298 0.416667 0.673886
0.649897 0.122925 0.111565 0.890096 0.036625 0.454298 0.416667 0.752264
0.649201 0.131706 0.112221 0.890096 0.036625 0.454298 0.500000 0.752264
0.649201 0.131706 0.112221 0.890096 0.036628 0.454299 0.500000 0.752264
0.612918 0.124114 0.183921 0.890096 0.036628 0.454299 0.500000 0.673886
0.613526 0.115315 0.183439 0.890096 0.036628 0.454299 0.416667 0.673886
0.612918 0.124114 0.183921 0.830110 0.323311 0.454299 0.500000 0.673886
0.649201 0.131706 0.112221 0.830110 0.323311 0.454299 0.500000 0.752264
0.646318 0.140029 0.111565 0.830110 0.323311 0.454299 0.583333 0.752264
0.646318 0.140029 0.111565 0.830111 0.323308 0.454299 0.583333 0.752264
0.609947 0.132419 0.183439 0.830111 0.323308 0.454299 0.583333 0.673886
0.612918 0.124114 0.183921 0.830111 0.323308 0.454299 0.500000 0.673886
0.609947 0.132419 0.183439 0.661989 0.632605 0.401972 0.583333 0.673886
0.646318 0.140029 0.111565 0.661989 0.632605 0.401972 0.583333 0.752264
0.642020 0.145664 0.109774 0.661989 0.632605 0.401972 0.666667 0.752264
0.642020 0.145664 0.109774 0.661992 0.632601 0.401973 0.666667 0.752264
0.605411 0.138004 0.182121 0.661992 0.632601 0.401973 0.666667 0.673886
0.609947 0.132419 0.183439 0.661992 0.632601 0.401973 0.583333 0.673886
0.605411 0.138004 0.182121 0.195153 0.960079 0.200411 0.666667 0.673886
0.642020 0.145664 0.109774 0.195153 0.960079 0.200411 0.666667 0.752264
0.637460 0.147102 0.107328 0.195153 0.960079 0.200411 0.750000 0.752264
0.637460 0.147102 0.107328 0.195149 0.960080 0.200409 0.750000 0.752264
0.600523 0.139373 0.180320 0.195149 0.960080 0.200409 0.750000 0.673886
0.605411 0.138004 0.182121 0.195149 0.960080 0.200409 0.666667 0.673886
0.600523 0.139373 0.180320 -0.563704 0.801295 -0.200410 0.750000 0.673886
0.637460 0.147102 0.107328 -0.563704 0.801295 -0.200410 0.750000 0.752264
0.633858 0.143956 0.104882 -0.563704 0.801295 -0.200410 0.833333 0.752264
0.633858 0.143956 0.104882 -0.563699 0.801299 -0.200408 0.833333 0.752264
0.596595 0.136159 0.178519 -0.563699 0.801299 -0.200408 0.833333 0.673886
0.600523 0.139373 0.180320 -0.563699 0.801299 -0.200408 0.750000 0.673886
0.596595 0.136159 0.178519 -0.860084 0.314123 -0.401973 0.833333 0.673886
0.633858 0.143956 0.104882 -0.860084 0.314123 -0.401973 0.833333 0.752264
0.632180 0.137071 0.103091 -0.860084 0.314123 -0.401973 0.916667 0.752264
0.632180 0.137071 0.103091 -0.860084 0.314124 -0.401973 0.916667 0.752264
0.594678 0.129224 0.177201 -0.860084 0.314124 -0.401973 0.916667 0.673886
0.596595 0.136159 0.178519 -0.860084 0.314124 -0.401973 0.833333 0.673886
0.594678 0.129224 0.177201 -0.890096 -0.036625 -0.454299 0.916667 0.673886
0.632180 0.137071 0.103091 -0.890096 -0.036625 -0.454299 0.916667 0.752264
0.632876 0.128290 0.102435 -0.890096 -0.036625 -0.454299 1.000000 0.752264
0.632876 0.128290 0.102435 -0.890096 -0.036622 -0.454299 1.000000 0.752264
0.595286 0.120425 0.176718 -0.890096 -0.036622 -0.454299 1.000000 0.673886
0.594678 0.129224 0.177201 -0.890096 -0.036622 -0.454299 0.916667 0.673886
0.632876 0.128290 0.102435 -0.777785 -0.312356 -0.545421 0.000000 0.752264
0.665814 0.135182 0.051518 -0.777785 -0.312356 -0.545421 0.000000 0.828681
0.670076 0.127147 0.050041 -0.777785 -0.312356 -0.545421 0.083333 0.828681
0.635759 0.119967 0.103091 -0.777785 -0.312356 -0.545421 0.083333 0.752264
0.635759 0.119967 0.103091 -0.615693 -0.622911 -0.482601 0.083333 0.752264
0.670076 0.127147 0.050041 -0.615693 -0.622911 -0.482601 0.083333 0.828681
0.678143 0.122301 0.046005 -0.615693 -0.622911 -0.482601 0.166667 0.828681
0.678143 0.122301 0.046005 -0.615688 -0.622919 -0.482598 0.166667 0.828681
0.640057 0.114331 0.104882 -0.615688 -0.622919 -0.482598 0.166667 0.752264
0.635759 0.119967 0.103091 -0.615688 -0.622919 -0.482598 0.083333 0.752264
0.640057 0.114331 0.104882 -0.172066 -0.955250 -0.240606 0.166667 0.752264
0.678143 0.122301 0.046005 -0.172066 -0.955250 -0.240606 0.166667 0.828681
0.687853 0.121940 0.040492 -0.172066 -0.955250 -0.240606 0.250000 0.828681
0.687853 0.121940 0.040492 -0.172065 -0.955250 -0.240606 0.250000 0.828681
0.644617 0.112894 0.107328 -0.172065 -0.955250 -0.240606 0.250000 0.752264
0.640057 0.114331 0.104882 -0.172065 -0.955250 -0.240606 0.166667 0.752264
0.644617 0.112894 0.107328 0.540618 -0.806127 0.240606 0.250000 0.752264
0.687853 0.121940 0.040492 0.540618 -0.806127 0.240606 0.250000 0.828681
0.696604 0.126163 0.034979 0.540618 -0.806127 0.240606 0.333333 0.828681
0.648219 0.116039 0.109774 0.540618 -0.806127 0.240606 0.333333 0.752264
0.648219 0.116039 0.109774 0.813787 -0.323801 0.482602 0.333333 0.752264
0.696604 0.126163 0.034979 0.813787 -0.323801 0.482602 0.333333 0.828681
0.702051 0.133838 0.030942 0.813787 -0.323801 0.482602 0.416667 0.828681
0.702051 0.133838 0.030942 0.813785 -0.323810 0.482599 0.416667 0.828681
0.649897 0.122925 0.111565 0.813785 -0.323810 0.482599 0.416667 0.752264
0.648219 0.116039 0.109774 0.813785 -0.323810 0.482599 0.333333 0.752264
0.649897 0.122925 0.111565 0.837771 0.025662 0.545418 0.416667 0.752264
0.702051 0.133838 0.030942 0.837771 0.025662 0.545418 0.416667 0.828681
0.702735 0.142907 0.029465 0.837771 0.025662 0.545418 0.500000 0.828681
0.702735 0.142907 0.029465 0.837770 0.025675 0.545420 0.500000 0.828681
0.649201 0.131706 0.112221 0.837770 0.025675 0.545420 0.500000 0.752264
0.649897 0.122925 0.111565 0.837770 0.025675 0.545420 0.416667 0.752264
0.649201 0.131706 0.112221 0.777779 0.312375 0.545419 0.500000 0.752264
0.702735 0.142907 0.029465 0.777779 0.312375 0.545419 0.500000 0.828681
0.698472 0.150942 0.030942 0.777779 0.312375 0.545419 0.583333 0.828681
0.698472 0.150942 0.030942 0.777784 0.312363 0.545419 0.583333 0.828681
0.646318 0.140029 0.111565 0.777784 0.312363 0.545419 0.583333 0.752264
0.649201 0.131706 0.112221 0.777784 0.312363 0.545419 0.500000 0.752264
0.646318 0.140029 0.111565 0.615695 0.622910 0.482600 0.583333 0.752264
0.698472 0.150942 0.030942 0.615695 0.622910 0.482600 0.583333 0.828681
0.690405 0.155788 0.034979 0.615695 0.622910 0.482600 0.666667 0.828681
0.690405 0.155788 0.034979 0.615690 0.622917 0.482599 0.666667 0.828681
0.642020 0.145664 0.109774 0.615690 0.622917 0.482599 0.666667 0.752264
0.646318 0.140029 0.111565 0.615690 0.622917 0.482599 0.583333 0.752264
0.642020 0.145664 0.109774 0.172068 0.955249 0.240607 0.666667 0.752264
0.690405 0.155788 0.034979 0.172068 0.955249 0.240607 0.666667 0.828681
0.680695 0.156148 0.040492 0.172068 0.955249 0.240607 0.750000 0.828681
0.680695 0.156148 0.040492 0.172069 0.955249 0.240608 0.750000 0.828681
0.637460 0.147102 0.107328 0.172069 0.955249 0.240608 0.750000 0.752264
0.642020 0.145664 0.109774 0.172069 0.955249 0.240608 0.666667 0.752264
0.637460 0.147102 0.107328 -0.540617 0.806128 -0.240605 0.750000 0.752264
0.680695 0.156148 0.040492 -0.540617 0.806128 -0.240605 0.750000 0.828681
0.671945 0.151925 0.046005 -0.540617 0.806128 -0.240605 0.833333 0.828681
0.671945 0.151925 0.046005 -0.540620 0.806125 -0.240607 0.833333 0.828681
0.633858 0.143956 0.104882 -0.540620 0.806125 -0.240607 0.833333 0.752264
0.637460 0.147102 0.107328 -0.540620 0.806125 -0.240607 0.750000 0.752264
0.633858 0.143956 0.104882 -0.813785 0.323807 -0.482599 0.833333 0.752264
0.671945 0.151925 0.046005 -0.813785 0.323807 -0.482599 0.833333 0.828681
0.666498 0.144251 0.050041 -0.813785 0.323807 -0.482599 0.916667 0.828681
0.666498 0.144251 0.050041 -0.813784 0.323810 -0.482599 0.916667 0.828681
0.632180 0.137071 0.103091 -0.813784 0.323810 -0.482599 0.916667 0.752264
0.633858 0.143956 0.104882 -0.813784 0.323810 -0.482599 0.833333 0.752264
0.632180 0.137071 0.103091 -0.837769 -0.025683 -0.545420 0.916667 0.752264
0.666498 0.144251 0.050041 -0.837769 -0.025683 -0.545420 0.916667 0.828681
0.665814 0.135182 0.051518 -0.837769 -0.025683 -0.545420 1.000000 0.828681
0.665814 0.135182 0.051518 -0.837769 -0.025675 -0.545421 1.000000 0.828681
0.632876 0.128290 0.102435 -0.837769 -0.025675 -0.545421 1.000000 0.752264
0.632180 0.137071 0.103091 -0.837769 -0.025675 -0.545421 0.916667 0.752264
0.665814 0.135182 0.051518 0.098978 -0.128909 0.986705 0.000000 0.828681
0.509595 0.102494 0.062919 0.098978 -0.128909 0.986705 0.000000 1.000000
0.511294 0.093924 0.061628 0.098978 -0.128909 0.986705 0.083333 1.000000
0.511294 0.093924 0.061628 0.098980 -0.128919 0.986703 0.083333 1.000000
0.670076 0.127147 0.050041 0.098980 -0.128919 0.986703 0.083333 0.828681
0.665814 0.135182 0.051518 0.098980 -0.128919 0.986703 0.000000 0.828681
0.670076 0.127147 0.050041 0.160088 -0.460601 0.873051 0.083333 0.828681
0.511294 0.093924 0.061628 0.160088 -0.460601 0.873051 0.083333 1.000000
0.512357 0.087612 0.058103 0.160088 -0.460601 0.873051 0.166667 1.000000
0.512357 0.087612 0.058103 0.160087 -0.460597 0.873054 0.166667 1.000000
0.678143 0.122301 0.046005 0.160087 -0.460597 0.873054 0.166667 0.828681
0.670076 0.127147 0.050041 0.160087 -0.460597 0.873054 0.083333 0.828681
0.678143 0.122301 0.046005 0.214708 -0.874321 0.435275 0.166667 0.828681
0.512357 0.087612 0.058103 0.214708 -0.874321 0.435275 0.166667 1.000000
0.512500 0.085250 0.053288 0.214708 -0.874321 0.435275 0.250000 1.000000
0.512500 0.085250 0.053288 0.214708 -0.874319 0.435278 0.250000 1.000000
0.687853 0.121940 0.040492 0.214708 -0.874319 0.435278 0.250000 0.828681
0.678143 0.122301 0.046005 0.214708 -0.874319 0.435278 0.166667 0.828681
0.687853 0.121940 0.040492 0.153844 -0.887056 -0.435275 0.250000 0.828681
0.512500 0.085250 0.053288 0.153844 -0.887056 -0.435275 0.250000 1.000000
0.511684 0.087471 0.048473 0.153844 -0.887056 -0.435275 0.333333 1.000000
0.511684 0.087471 0.048473 0.153844 -0.887058 -0.435271 0.333333 1.000000
0.696604 0.126163 0.034979 0.153844 -0.887058 -0.435271 0.333333 0.828681
0.687853 0.121940 0.040492 0.153844 -0.887058 -0.435271 0.250000 0.828681
0.696604 0.126163 0.034979 0.038007 -0.486133 -0.873058 0.333333 0.828681
0.511684 0.087471 0.048473 0.038007 -0.486133 -0.873058 0.333333 1.000000
0.510128 0.093680 0.044948 0.038007 -0.486133 -0.873058 0.416667 1.000000
0.510128 0.093680 0.044948 0.038009 -0.486142 -0.873053 0.416667 1.000000
0.702051 0.133838 0.030942 0.038009 -0.486142 -0.873053 0.416667 0.828681
0.696604 0.126163 0.034979 0.038009 -0.486142 -0.873053 0.333333 0.828681
0.702051 0.133838 0.030942 -0.038989 -0.157791 -0.986703 0.416667 0.828681
0.510128 0.093680 0.044948 -0.038989 -0.157791 -0.986703 0.416667 1.000000
0.508248 0.102213 0.043658 -0.038989 -0.157791 -0.986703 0.500000 1.000000
0.508248 0.102213 0.043658 -0.038994 -0.157762 -0.986707 0.500000 1.000000
0.702735 0.142907 0.029465 -0.038994 -0.157762 -0.986707 0.500000 0.828681
0.702051 0.133838 0.030942 -0.038994 -0.157762 -0.986707 0.416667 0.828681
0.702735 0.142907 0.029465 -0.098980 0.128922 -0.986703 0.500000 0.828681
0.508248 0.102213 0.043658 -0.098980 0.128922 -0.986703 0.500000 1.000000
0.506549 0.110784 0.044948 -0.098980 0.128922 -0.986703 0.583333 1.000000
0.506549 0.110784 0.044948 -0.098975 0.128892 -0.986707 0.583333 1.000000
0.698472 0.150942 0.030942 -0.098975 0.128892 -0.986707 0.583333 0.828681
0.702735 0.142907 0.029465 -0.098975 0.128892 -0.986707 0.500000 0.828681
0.698472 0.150942 0.030942 -0.160086 0.460588 -0.873058 0.583333 0.828681
0.506549 0.110784 0.044948 -0.160086 0.460588 -0.873058 0.583333 1.000000
0.505485 0.117095 0.048473 -0.160086 0.460588 -0.873058 0.666667 1.000000
0.505485 0.117095 0.048473 -0.160087 0.460598 -0.873053 0.666667 1.000000
0.690405 0.155788 0.034979 -0.160087 0.460598 -0.873053 0.666667 0.828681
0.698472 0.150942 0.030942 -0.160087 0.460598 -0.873053 0.583333 0.828681
0.690405 0.155788 0.034979 -0.214708 0.874321 -0.435275 0.666667 0.828681
0.505485 0.117095 0.048473 -0.214708 0.874321 -0.435275 0.666667 1.000000
0.505343 0.119458 0.053288 -0.214708 0.874321 -0.435275 0.750000 1.000000
0.505343 0.119458 0.053288 -0.214708 0.874323 -0.435270 0.750000 1.000000
0.680695 0.156148 0.040492 -0.214708 0.874323 -0.435270 0.750000 0.828681
0.690405 0.155788 0.034979 -0.214708 0.874323 -0.435270 0.666667 0.828681
0.680695 0.156148 0.040492 -0.153844 0.887055 0.435276 0.750000 0.828681
0.505343 0.119458 0.053288 -0.153844 0.887055 0.435276 0.750000 1.000000
0.506159 0.117236 0.058103 -0.153844 0.887055 0.435276 0.833333 1.000000
0.506159 0.117236 0.058103 -0.153843 0.887054 0.435279 0.833333 1.000000
0.671945 0.151925 0.046005 -0.153843 0.887054 0.435279 0.833333 0.828681
0.680695 0.156148 0.040492 -0.153843 0.887054 0.435279 0.750000 0.828681
0.671945 0.151925 0.046005 -0.038010 0.486145 0.873051 0.833333 0.828681
0.506159 0.117236 0.058103 -0.038010 0.486145 0.873051 0.833333 1.000000
0.507715 0.111028 0.061628 -0.038010 0.486145 0.873051 0.916667 1.000000
0.507715 0.111028 0.061628 -0.038009 0.486141 0.873053 0.916667 1.000000
0.666498 0.144251 0.050041 -0.038009 0.486141 0.873053 0.916667 0.828681
0.671945 0.151925 0.046005 -0.038009 0.486141 0.873053 0.833333 0.828681
0.666498 0.144251 0.050041 0.038992 0.157778 0.986705 0.916667 0.828681
0.507715 0.111028 0.061628 0.038992 0.157778 0.986705 0.916667 1.000000
0.509595 0.102494 0.062919 0.038992 0.157778 0.986705 1.000000 1.000000
0.509595 0.102494 0.062919 0.038989 0.157788 0.986703 1.000000 1.000000
0.665814 0.135182 0.051518 0.038989 0.157788 0.986703 1.000000 0.828681
0.666498 0.144251 0.050041 0.038989 0.157788 0.986703 0.916667 0.828681
0.725802 0.147734 0.857129 0.411926 0.086204 0.907130 0.000000 0.000000
0.728740 0.139422 0.856585 0.411926 0.086204 0.907130 0.000000 0.000000
0.733188 0.133818 0.855098 0.411926 0.086204 0.907130 0.000000 0.000000
0.725802 0.147734 0.857129 0.411914 0.086196 0.907137 0.000000 0.000000
0.733188 0.133818 0.855098 0.411914 0.086196 0.907137 0.000000 0.000000
0.737954 0.132423 0.853066 0.411914 0.086196 0.907137 0.000000 0.000000
0.725802 0.147734 0.857129 0.411898 0.086182 0.907145 0.000000 0.000000
0.737954 0.132423 0.853066 0.411898 0.086182 0.907145 0.000000 0.000000
0.741761 0.135612 0.851035 0.411898 0.086182 0.907145 0.000000 0.000000
0.725802 0.147734 0.857129 0.411904 0.086192 0.907142 0.000000 0.000000
0.741761 0.135612 0.851035 0.411904 0.086192 0.907142 0.000000 0.000000
0.743589 0.142529 0.849548 0.411904 0.086192 0.907142 0.000000 0.000000
0.725802 0.147734 0.857129 0.411903 0.086185 0.907143 0.000000 0.000000
0.743589 0.142529 0.849548 0.411903 0.086185 0.907143 0.000000 0.000000
0.742948 0.151321 0.849003 0.411903 0.086185 0.907143 0.000000 0.000000
0.725802 0.147734 0.857129 0.411902 0.086188 0.907143 0.000000 0.000000
0.742948 0.151321 0.849003 0.411902 0.086188 0.907143 0.000000 0.000000
0.740010 0.159633 0.849548 0.411902 0.086188 0.907143 0.000000 0.000000
0.725802 0.147734 0.857129 0.411905 0.086184 0.907142 0.000000 0.000000
0.740010 0.159633 0.849548 0.411905 0.086184 0.907142 0.000000 0.000000
0.735562 0.165237 0.851035 0.411905 0.086184 0.907142 0.000000 0.000000
0.725802 0.147734 0.857129 0.411898 0.086189 0.907145 0.000000 0.000000
0.735562 0.165237 0.851035 0.411898 0.086189 0.907145 0.000000 0.000000
0.730796 0.166631 0.853066 0.411898 0.086189 0.907145 0.000000 0.000000
0.725802 0.147734 0.857129 0.411913 0.086183 0.907138 0.000000 0.000000
0.730796 0.166631 0.853066 0.411913 0.086183 0.907138 0.000000 0.000000
0.726989 0.163443 0.855098 0.411913 0.086183 0.907138 0.000000 0.000000
0.725802 0.147734 0.857129 0.411935 0.086181 0.907129 0.000000 0.000000
0.726989 0.163443 0.855098 0.411935 0.086181 0.907129 0.000000 0.000000
0.725161 0.156526 0.856585 0.411935 0.086181 0.907129 0.000000 0.000000
0.512357 0.087612 0.058103 -0.976316 -0.204283 0.071245 0.000000 0.000000
0.511294 0.093924 0.061628 -0.976316 -0.204283 0.071245 0.000000 0.000000
0.509595 0.102494 0.062919 -0.976316 -0.204283 0.071245 0.000000 0.000000
0.512500 0.085250 0.053288 -0.976316 -0.204283 0.071243 0.000000 0.000000
0.512357 0.087612 0.058103 -0.976316 -0.204283 0.071243 0.000000 0.000000
0.509595 0.102494 0.062919 -0.976316 -0.204283 0.071243 0.000000 0.000000
0.511684 0.087471 0.048473 -0.976317 -0.204281 0.071240 0.000000 0.000000
0.512500 0.085250 0.053288 -0.976317 -0.204281 0.071240 0.000000 0.000000
0.509595 0.102494 0.062919 -0.976317 -0.204281 0.071240 0.000000 0.000000
0.510128 0.093680 0.044948 -0.976314 -0.204289 0.071249 0.000000 0.000000
0.511684 0.087471 0.048473 -0.976314 -0.204289 0.071249 0.000000 0.000000
0.509595 0.102494 0.062919 -0.976314 -0.204289 0.071249 0.000000 0.000000
0.508248 0.102213 0.043658 -0.976315 -0.204284 0.071247 0.000000 0.000000
0.510128 0.093680 0.044948 -0.976315 -0.204284 0.071247 0.000000 0.000000
0.509595 0.102494 0.062919 -0.976315 -0.204284 0.071247 0.000000 0.000000
0.506549 0.110784 0.044948 -0.976315 -0.204284 0.071247 0.000000 0.000000
0.505485 0.117095 0.048473 -0.976316 -0.204283 0.071247 0.000000 0.000000
0.506549 0.110784 0.044948 -0.976316 -0.204283 0.071247 0.000000 0.000000
0.509595 0.102494 0.062919 -0.976316 -0.204283 0.071247 0.000000 0.000000
0.505343 0.119458 0.053288 -0.976315 -0.204285 0.071245 0.000000 0.000000
0.505485 0.117095 0.048473 -0.976315 -0.204285 0.071245 0.000000 0.000000
0.509595 0.102494 0.062919 -0.976315 -0.204285 0.071245 0.000000 0.000000
0.506159 0.117236 0.058103 -0.976316 -0.204282 0.071252 0.000000 0.000000
0.505343 0.119458 0.053288 -0.976316 -0.204282 0.071252 0.000000 0.000000
0.509595 0.102494 0.062919 -0.976316 -0.204282 0.071252 0.000000 0.000000
0.507715 0.111028 0.061628 -0.976316 -0.204287 0.071235 0.000000 0.000000
0.506159 0.117236 0.058103 -0.976316 -0.204287 0.071235 0.000000 0.000000
0.509595 0.102494 0.062919 -0.976316 -0.204287 0.071235 0.000000 0.000000
3 0 1 2
3 3 4 5
3 6 7 8
3 9 10 11
3 12 13 14
3 15 16 17
3 18 19 20
3 21 22 23
3 24 25 26
3 27 28 29
3 30 31 32
3 33 34 35
3 36 37 38
3 39 40 41
3 42 43 44
3 45 46 47
3 48 49 50
3 51 52 53
3 54 55 56
3 57 58 59
3 60 61 62
3 63 64 65
3 66 67 68
3 69 70 71
3 72 73 74
3 75 76 77
3 78 79 80
3 81 82 83
3 84 85 86
3 87 88 89
3 90 91 92
3 93 94 95
3 96 97 98
3 99 100 101
3 102 103 104
3 105 106 107
3 108 109 110
3 111 112 113
3 114 115 116
3 117 118 119
3 120 121 122
3 123 124 125
3 126 127 128
3 129 130 131
3 132 133 134
3 135 136 137
3 138 139 140
3 141 142 143
3 144 145 146
3 147 148 149
3 150 151 152
3 153 154 155
3 156 157 158
3 159 160 161
3 162 163 164
3 165 166 167
3 168 169 170
3 171 172 173
3 174 175 176
3 177 178 179
3 180 181 182
3 183 184 185
3 186 187 188
3 189 190 191
3 192 193 194
3 195 196 197
3 198 199 200
3 200 201 198
3 202 203 204
3 205 206 207
3 208 209 210
3 211 212 213
3 214 215 216
3 217 218 219
3 220 221 222
3 223 224 225
3 226 227 228
3 229 230 231
3 232 233 234
3 235 236 237
3 238 239 240
3 240 241 238
3 242 243 244
3 245 246 247
3 248 249 250
3 251 252 253
3 254 255 256
3 257 258 259
3 260 261 262
3 263 264 265
3 266 267 268
3 269 270 271
3 272 273 274
3 275 276 277
3 278 279 280
3 281 282 283
3 284 285 286
3 287 288 289
3 290 291 292
3 293 294 295
3 296 297 298
3 299 300 301
3 302 303 304
3 305 306 307
3 308 309 310
3 311 312 313
3 314 315 316
3 317 318 319
3 320 321 322
3 323 324 325
3 326 327 328
3 329 330 331
3 332 333 334
3 335 336 337
3 338 339 340
3 341 342 343
3 344 345 346
3 347 348 349
3 350 351 352
3 353 354 355
3 356 357 358
3 359 360 361
3 362 363 364
3 365 366 367
3 368 369 370
3 371 372 373
3 374 375 376
3 377 378 379
3 380 381 382
3 383 384 385
3 386 387 388
3 389 390 391
3 392 393 394
3 395 396 397
3 398 399 400
3 401 402 403
3 404 405 406
3 407 408 409
3 410 411 412
3 413 414 415
3 416 417 418
3 419 420 421
3 422 423 424
3 425 426 427
3 428 429 430
3 430 431 428
3 432 433 434
3 435 436 437
3 438 439 440
3 441 442 443
3 444 445 446
3 446 447 444
3 448 449 450
3 451 452 453
3 454 455 456
3 457 458 459
3 460 461 462
3 463 464 465
3 466 467 468
3 469 470 471
3 472 473 474
3 475 476 477
3 478 479 480
3 481 482 483
3 484 485 486
3 487 488 489
3 490 491 492
3 493 494 495
3 496 497 498
3 499 500 501
3 502 503 504
3 505 506 507
3 508 509 510
3 511 512 513
3 514 515 516
3 517 518 519
3 520 521 522
3 523 524 525
3 526 527 528
3 529 530 531
3 532 533 534
3 535 536 537
3 538 539 540
3 541 542 543
3 544 545 546
3 547 548 549
3 550 551 552
3 553 554 555
3 556 557 558
3 559 560 561
3 562 563 564
3 565 566 567
3 568 569 570
3 571 572 573
3 574 575 576
3 577 578 579
3 580 581 582
3 583 584 585
3 586 587 588
3 589 590 591
3 592 593 594
3 595 596 597
3 598 599 600
3 601 602 603
3 604 605 606
3 607 608 609
3 610 611 612
3 613 610 612
3 614 615 616
3 617 618 619
3 620 621 622
3 623 624 625
